HIERARCHY
ROOT Hips
{
	OFFSET 0.00000 0.00000 0.00000
	CHANNELS 6 Xposition Yposition Zposition Zrotation Yrotation Xrotation 
	JOINT LHipJoint
	{
		OFFSET 0 0 0
		CHANNELS 3 Zrotation Yrotation Xrotation
		JOINT LeftHip
		{
			OFFSET 1.28858 -1.83292 1.03970
			CHANNELS 3 Zrotation Yrotation Xrotation
			JOINT LeftKnee
			{
				OFFSET 2.47846 -6.80952 0.00000
				CHANNELS 3 Zrotation Yrotation Xrotation
				JOINT LeftAnkle
				{
					OFFSET 2.75274 -7.56311 0.00000
					CHANNELS 3 Zrotation Yrotation Xrotation
					JOINT LeftToe
					{
						OFFSET 0.12848 -0.35301 1.68223
						CHANNELS 3 Zrotation Yrotation Xrotation
						End Site
						{
							OFFSET 0.00000 -0.00000 0.87311
						}
					}
				}
			}
		}
	}
	JOINT RHipJoint
	{
		OFFSET 0 0 0
		CHANNELS 3 Zrotation Yrotation Xrotation
		JOINT RightHip
		{
			OFFSET -1.31183 -1.83292 1.03970
			CHANNELS 3 Zrotation Yrotation Xrotation
			JOINT RightKnee
			{
				OFFSET -2.44740 -6.72417 0.00000
				CHANNELS 3 Zrotation Yrotation Xrotation
				JOINT RightAnkle
				{
					OFFSET -2.67343 -7.34519 0.00000
					CHANNELS 3 Zrotation Yrotation Xrotation
					JOINT RightToe
					{
						OFFSET -0.16914 -0.46471 1.77626
						CHANNELS 3 Zrotation Yrotation Xrotation
						End Site
						{
							OFFSET -0.00000 -0.00000 0.92777
						}
					}
				}
			}
		}
	}
	JOINT lowerback
	{
		OFFSET 0 0 0
		CHANNELS 3 Zrotation Yrotation Xrotation
		JOINT Chest
		{
			OFFSET 0.01249 2.14252 0.03842
			CHANNELS 3 Zrotation Yrotation Xrotation
			JOINT Chest2
			{
				OFFSET -0.02957 2.14199 -0.03751
				CHANNELS 3 Zrotation Yrotation Xrotation
				JOINT lowerneck
				{
					OFFSET 0 0 0
					CHANNELS 3 Zrotation Yrotation Xrotation
					JOINT Neck
					{
						OFFSET -0.01678 1.65709 -0.05476
						CHANNELS 3 Zrotation Yrotation Xrotation
						JOINT Head
						{
							OFFSET 0.07912 1.58331 -0.11843
							CHANNELS 3 Zrotation Yrotation Xrotation
							End Site
							{
								OFFSET 0.03298 1.73940 -0.04271
							}
						}
					}
				}
				JOINT LeftCollar
				{
					OFFSET 0 0 0
					CHANNELS 3 Zrotation Yrotation Xrotation
					JOINT LeftShoulder
					{
						OFFSET 3.39556 1.16496 0.08673
CHANNELS 3 Zrotation Xrotation Yrotation
						JOINT LeftElbow
						{
OFFSET 0 -5.239100 -0.000000
CHANNELS 3 Zrotation Xrotation Yrotation
							JOINT LeftWrist
							{
OFFSET 0 -3.314670 0.000000
CHANNELS 3 Zrotation Xrotation Yrotation
								JOINT lhand
								{
									OFFSET 0 0 0
CHANNELS 3 Zrotation Xrotation Yrotation
									JOINT LFingers
									{
OFFSET 0 -0.965900 0.000000
CHANNELS 3 Zrotation Xrotation Yrotation
										End Site
										{
OFFSET 0 -0.778730 0.000000
										}
									}
								}
								JOINT LThumb
								{
OFFSET 0 0.000000 0.000000
CHANNELS 3 Zrotation Xrotation Yrotation
									End Site
									{
OFFSET 0 -0.790620 0.790620
									}
								}
							}
						}
					}
				}
				JOINT RightCollar
				{
					OFFSET 0 0 0
					CHANNELS 3 Zrotation Yrotation Xrotation
					JOINT RightShoulder
					{
						OFFSET -3.27193 1.31331 0.33940
CHANNELS 3 Zrotation Xrotation Yrotation
						JOINT RightElbow
						{
OFFSET 0 -5.302520 0.000000
CHANNELS 3 Zrotation Xrotation Yrotation
							JOINT RightWrist
							{
OFFSET 0 -3.678750 0.000000
CHANNELS 3 Zrotation Xrotation Yrotation
								JOINT rhand
								{
									OFFSET 0 0 0
CHANNELS 3 Zrotation Xrotation Yrotation
									JOINT RFingers
									{
OFFSET 0 -0.594810 0.000000
CHANNELS 3 Zrotation Xrotation Yrotation
										End Site
										{
OFFSET 0 -0.479550 0.000000
										}
									}
								}
								JOINT RThumb
								{
OFFSET 0 0.000000 0.000000
CHANNELS 3 Zrotation Xrotation Yrotation
									End Site
									{
OFFSET 0 -0.486870 0.486870
									}
								}
							}
						}
					}
				}
			}
		}
	}
}
MOTION
Frames: 9
Frame Time: 0.008333333333333333
9.383626 22.030591 7.281493 -159.466057 8.043478 157.939359 0.000000 0.000000 0.000000 2.894842 16.879440 -4.010440 3.947673 12.069885 36.008485 -1.358150 21.410278 -0.245241 4.723145 13.040126 39.561469 0.000000 0.000000 0.000000 -33.663402 -18.412716 -59.712794 -13.665371 -19.009145 71.179645 -2.092794 -10.019387 -32.444309 -0.188159 2.578177 -7.118911 3.071932 -11.701227 5.544914 5.869493 -14.721924 5.956178 4.697874 -6.936295 4.011634 -2.512990 -10.348812 0.316144 -0.608149 -13.626100 7.629752 -0.074787 -6.802739 2.499156 0.000000 0.000000 0.000000 117.317338 -70.418096 51.682861 16.230842 -25.821993 3.751957 39.396363 -27.316849 22.728205 0.000000 0.000000 0.000000 -7.125000 0.000000 0.000000 6.314387 1.666172 6.169712 0.000000 0.000000 0.000000 -118.853592 -18.312924 -44.559995 -30.436170 -41.264303 -11.696237 -19.902003 -7.095952 30.571070 0.000000 0.000000 0.000000 7.125000 0.000000 0.000000 13.742592 61.596800 -5.614176
9.322609 22.198742 7.452736 -159.576564 11.114807 157.679538 0.000000 0.000000 0.000000 3.933119 18.487787 -6.302162 4.577143 12.885623 38.950999 -1.316385 20.488559 -2.069238 4.791925 13.073323 39.765102 0.000000 0.000000 0.000000 -32.738066 -18.328524 -59.932250 -13.506226 -18.957223 70.690500 -1.980738 -10.859919 -32.341554 -0.292113 3.416904 -9.446836 3.402034 -11.962837 6.328368 6.272451 -14.910755 6.327285 5.075808 -6.978568 4.031379 -3.510718 -10.066730 0.527758 -0.880602 -13.154571 8.892207 -0.030258 -6.588559 2.938126 0.000000 0.000000 0.000000 116.482210 -69.456351 52.599894 14.982670 -24.115290 3.222867 40.808718 -27.587948 23.152558 0.000000 0.000000 0.000000 -7.125000 0.000000 0.000000 7.058541 0.704065 7.030626 0.000000 0.000000 0.000000 -119.265286 -21.434366 -46.258961 -30.414063 -41.245606 -11.681706 -21.101464 -6.794941 30.161350 0.000000 0.000000 0.000000 7.125000 0.000000 0.000000 12.106370 61.493989 -4.900155
9.258399 22.361483 7.629463 -159.630705 14.245706 157.430306 0.000000 0.000000 0.000000 5.028618 19.440407 -8.256237 5.016375 13.400401 40.889595 -1.219211 19.543100 -3.335343 3.585859 11.573405 34.257670 0.000000 0.000000 0.000000 -31.858227 -17.956761 -59.696332 -13.350825 -18.905019 70.211466 -2.127773 -9.632979 -32.381699 -0.131780 2.329716 -6.418227 3.712799 -12.208289 7.243709 6.694317 -15.052548 6.694183 5.515107 -6.997357 3.987231 -4.325689 -9.771005 0.692563 -1.631588 -12.614190 10.135549 -0.156803 -6.354370 3.332780 0.000000 0.000000 0.000000 114.979920 -68.386090 52.825335 13.885445 -22.568571 2.785328 42.347225 -27.689970 23.691389 0.000000 0.000000 0.000000 -7.125000 0.000000 0.000000 7.840020 -0.465883 7.979114 0.000000 0.000000 0.000000 -119.716519 -24.647574 -47.755617 -30.299430 -41.148601 -11.606163 -22.328216 -6.481606 30.064211 0.000000 0.000000 0.000000 7.125000 0.000000 0.000000 10.647015 61.705938 -4.353156
9.190959 22.517477 7.810928 -159.959786 17.210348 157.263628 0.000000 0.000000 0.000000 5.628145 19.912490 -10.225172 5.378365 13.797522 42.432433 -1.113136 18.314300 -7.888040 4.427283 12.707327 38.284179 0.000000 0.000000 0.000000 -31.243998 -17.616226 -59.359985 -13.164916 -18.840827 69.636812 -2.252482 -8.224851 -32.234339 -0.077332 1.792843 -4.933598 3.762118 -12.211964 8.032992 6.904844 -14.932968 7.069336 5.833590 -6.913420 4.007403 -4.425525 -9.698607 1.078828 -2.599943 -12.371866 11.070569 -0.447164 -6.254277 3.519972 0.000000 0.000000 0.000000 114.221407 -67.638006 53.473669 13.029063 -21.329599 2.463939 43.205914 -27.026677 23.871145 0.000000 0.000000 0.000000 -7.125000 0.000000 0.000000 8.295948 -0.994636 8.528039 0.000000 0.000000 0.000000 -119.652327 -27.305444 -48.674823 -30.164121 -41.033722 -11.517268 -23.552742 -6.294329 30.308415 0.000000 0.000000 0.000000 7.125000 0.000000 0.000000 9.391461 62.263753 -3.960138
9.124195 22.669069 7.999249 -160.361659 20.203007 157.118110 0.000000 0.000000 0.000000 6.149379 20.008766 -12.161012 5.539163 13.966027 43.102368 -1.009092 18.009780 -11.354115 4.214079 12.439000 37.304845 0.000000 0.000000 0.000000 -30.354601 -17.193504 -59.078231 -12.969780 -18.771048 69.031433 -2.209094 -8.099797 -31.902377 -0.112688 2.158159 -5.943257 3.748042 -12.086901 8.780040 6.992726 -14.666366 7.536748 6.032729 -6.761685 4.118988 -4.204825 -9.572547 1.018696 -3.515567 -12.010283 12.417029 -0.815311 -6.086726 3.925623 0.000000 0.000000 0.000000 113.804845 -66.868084 54.151034 12.367017 -20.351407 2.229222 43.824816 -25.694298 23.617199 0.000000 0.000000 0.000000 -7.125000 0.000000 0.000000 8.713702 -0.920830 8.956267 0.000000 0.000000 0.000000 -119.338867 -29.932081 -49.626955 -29.850559 -40.764711 -11.311992 -24.507686 -6.197702 30.971677 0.000000 0.000000 0.000000 7.125000 0.000000 0.000000 8.693269 63.186286 -3.849314
9.062066 22.815499 8.190162 -160.566521 23.252947 156.943352 0.000000 0.000000 0.000000 7.057097 19.829423 -14.015962 5.661166 14.091469 43.605721 -0.694577 16.586336 -14.504536 4.663456 12.984293 39.326718 0.000000 0.000000 0.000000 -29.098584 -16.679240 -58.573062 -12.742369 -18.686700 68.323031 -2.059013 -8.870308 -31.477512 -0.246392 3.136639 -8.663825 3.869296 -11.944581 9.567549 7.014891 -14.357716 8.115715 6.092140 -6.573522 4.276208 -4.049959 -9.346461 0.871494 -4.152728 -11.516896 13.811790 -1.094475 -5.849375 4.405087 0.000000 0.000000 0.000000 113.441999 -65.987934 54.426146 11.811081 -19.519315 2.039744 44.576678 -24.432728 23.152763 0.000000 0.000000 0.000000 -7.125000 0.000000 0.000000 9.259184 -0.642650 9.486165 0.000000 0.000000 0.000000 -118.823255 -32.688477 -50.592524 -29.385960 -40.360117 -11.010209 -24.910116 -6.324801 31.699303 0.000000 0.000000 0.000000 7.125000 0.000000 0.000000 8.703214 64.030590 -4.029172
9.004009 22.953580 8.382406 -160.495693 26.333552 156.822740 0.000000 0.000000 0.000000 8.461973 19.404228 -15.848594 5.730242 14.161664 43.889069 -0.477050 15.834744 -16.668047 4.446205 12.716730 38.340748 0.000000 0.000000 0.000000 -27.559218 -16.071552 -57.777065 -12.514858 -18.599395 67.611251 -2.014344 -9.253609 -31.448696 -0.269357 3.334039 -9.210577 4.591714 -11.500338 10.138862 6.744740 -13.626564 9.031682 5.454034 -6.110959 4.666210 -3.131798 -9.359088 0.153148 -4.587189 -11.399610 15.415153 -1.380719 -5.773386 4.719850 0.000000 0.000000 0.000000 115.445252 -65.671244 56.080672 11.418451 -18.926247 1.909911 45.596176 -24.249824 23.129314 0.000000 0.000000 0.000000 -7.125000 0.000000 0.000000 9.850405 -1.018915 10.177577 0.000000 0.000000 0.000000 -117.399491 -34.365903 -51.188160 -28.824842 -39.862669 -10.649012 -25.046837 -6.729585 32.297193 0.000000 0.000000 0.000000 7.125000 0.000000 0.000000 8.958966 64.671846 -4.282657
8.947102 23.082315 8.577738 -160.360324 29.305776 156.763037 0.000000 0.000000 0.000000 10.056006 18.675769 -17.705000 5.718158 14.149388 43.839528 -0.291472 14.960107 -17.795679 4.046697 12.221659 36.521526 0.000000 0.000000 0.000000 -25.983122 -15.538870 -56.824698 -12.320077 -18.522436 66.999568 -2.093654 -9.151419 -31.859803 -0.192489 2.784327 -7.681343 5.293872 -11.079874 10.740732 6.485016 -12.919205 9.869648 4.841291 -5.662235 4.977631 -2.561961 -9.315071 -0.229652 -4.805662 -11.233421 16.718573 -1.524826 -5.675683 4.945979 0.000000 0.000000 0.000000 116.938892 -65.246891 56.965535 11.153247 -18.522545 1.824531 47.185910 -25.005149 23.380828 0.000000 0.000000 0.000000 -7.125000 0.000000 0.000000 10.692735 -1.998920 11.263455 0.000000 0.000000 0.000000 -116.050755 -35.974483 -51.369146 -28.131058 -39.233147 -10.207803 -25.272047 -7.328035 32.840471 0.000000 0.000000 0.000000 7.125000 0.000000 0.000000 9.082674 65.282710 -4.469128
8.890034 23.201932 8.776832 -160.446579 32.042788 156.664429 0.000000 0.000000 0.000000 11.493739 17.590650 -19.551948 5.613760 14.042708 43.410094 0.008349 12.995339 -18.627196 4.284962 12.500468 37.572444 0.000000 0.000000 0.000000 -24.594184 -15.274678 -55.879374 -12.177538 -18.464657 66.550462 -2.179319 -9.248942 -32.436850 -0.137457 2.374303 -6.541975 5.471309 -10.849791 11.501971 6.347425 -12.491702 10.420564 4.674574 -5.405896 5.080713 -2.746858 -9.055123 -0.106556 -4.964462 -10.751963 17.707817 -1.549732 -5.442590 5.241326 0.000000 0.000000 0.000000 116.587346 -64.338836 56.366239 10.996624 -18.283062 1.774871 48.789467 -26.074341 23.583273 0.000000 0.000000 0.000000 -7.125000 0.000000 0.000000 11.548257 -2.950805 12.376904 0.000000 0.000000 0.000000 -115.299060 -38.168645 -51.298578 -27.277884 -38.438679 -9.673006 -25.723507 -7.997160 33.408119 0.000000 0.000000 0.000000 7.125000 0.000000 0.000000 8.955164 65.982698 -4.549897
